<svg width="17" height="18" viewBox="0 0 17 18" fill="none" xmlns="http://www.w3.org/2000/svg">
<path fill-rule="evenodd" clip-rule="evenodd" d="M7.67369 0C7.89982 0 8.11669 0.0888948 8.27659 0.247129C8.43649 0.405362 8.52632 0.619974 8.52632 0.84375V3.375H12.6576C13.1283 3.375 13.583 3.54037 13.9422 3.84075L16.2955 5.8095C16.5163 5.99431 16.6936 6.22452 16.8153 6.48409C16.937 6.74367 17 7.02636 17 7.3125C17 7.59864 16.937 7.88133 16.8153 8.14091C16.6936 8.40048 16.5163 8.63069 16.2955 8.8155L13.9422 10.7843C13.5831 11.0849 13.128 11.2499 12.6576 11.25H8.52632V17.1562C8.52632 17.38 8.43649 17.5946 8.27659 17.7529C8.11669 17.9111 7.89982 18 7.67369 18C7.44756 18 7.23069 17.9111 7.07079 17.7529C6.91089 17.5946 6.82106 17.38 6.82106 17.1562V11.25H1.98948C1.46183 11.25 0.955803 11.0426 0.582704 10.6734C0.209605 10.3042 0 9.8034 0 9.28125V5.34375C0 4.257 0.891285 3.375 1.98948 3.375H6.82106V0.84375C6.82106 0.619974 6.91089 0.405362 7.07079 0.247129C7.23069 0.0888948 7.44756 0 7.67369 0ZM7.67369 9.5625H12.6576C12.7248 9.56211 12.7896 9.53819 12.8406 9.495L15.1939 7.52625C15.2251 7.49985 15.2502 7.46707 15.2673 7.43017C15.2845 7.39327 15.2934 7.35313 15.2934 7.3125C15.2934 7.27187 15.2845 7.23173 15.2673 7.19483C15.2502 7.15793 15.2251 7.12515 15.1939 7.09875L12.8406 5.13C12.7896 5.08681 12.7248 5.06289 12.6576 5.0625H1.98948C1.9141 5.0625 1.84181 5.09213 1.78851 5.14488C1.73521 5.19762 1.70526 5.26916 1.70526 5.34375V9.28125C1.70526 9.4365 1.83259 9.5625 1.98948 9.5625H7.67369Z" fill="#8A8A95"/>
</svg>
